<svg width="30.000000000000004" height="30.000000000000004" xmlns="http://www.w3.org/2000/svg">
 <g id="Layer_1">
  <title>Layer 1</title>
  <path stroke-width="2" id="svg_1" d="m15,4.4c-6.46172,0 -11.7,4.74579 -11.7,10.6c0,5.85418 5.23829,10.6 11.7,10.6c6.46171,0 11.7,-4.74582 11.7,-10.6c0,-5.8542 -5.23828,-10.6 -11.7,-10.6zm-1.87967,17.69282l-2.8467,-2.5813l4.98064,-4.51208l-4.98064,-4.51208l2.8467,-2.57907l7.82793,7.09115l-7.82793,7.09339z" stroke="#b59571" fill="none"/>
  <path id="svg_2" d="m-65.12449,54.56596c-0.3148,0 -0.57,0.2552 -0.57,0.57c0,0.3148 0.2552,0.57 0.57,0.57c0.3148,0 0.57,-0.2552 0.57,-0.57c0,-0.3148 -0.2552,-0.57 -0.57,-0.57zm-0.09157,0.95141l-0.13869,-0.13881l0.24265,-0.24263l-0.24265,-0.24263l0.13869,-0.13869l0.38136,0.38132l-0.38136,0.38144z" stroke="#b59571" fill="none"/>
  <path id="svg_3" d="m-22.18849,51.38196c-2.70619,0 -4.9,1.70132 -4.9,3.8c0,2.09867 2.19381,3.8 4.9,3.8c2.70619,0 4.9,-1.70133 4.9,-3.8c0,-2.09868 -2.19381,-3.8 -4.9,-3.8zm-0.78721,6.34271l-1.19221,-0.92537l2.08591,-1.61754l-2.08591,-1.61754l1.19221,-0.92457l3.27837,2.54211l-3.27837,2.54291z" stroke="#b59571" fill="none"/>
 </g>
</svg>