<svg width="40" height="160" viewBox="0 0 40 160" fill="none" xmlns="http://www.w3.org/2000/svg">
<path d="M35.9686 12.3729C35.7799 11.6998 35.4124 11.0904 34.905 10.6094C34.3833 10.1137 33.7439 9.75912 33.0471 9.57911C30.4394 8.89177 19.9918 8.89177 19.9918 8.89177C15.6363 8.84222 11.2819 9.06017 6.95311 9.5444C6.25632 9.73771 5.61809 10.1002 5.09521 10.5997C4.58144 11.094 4.2093 11.7036 4.0149 12.3715C3.54792 14.8873 3.32103 17.4417 3.33728 20.0003C3.32062 22.5567 3.54696 25.1103 4.0149 27.6291C4.20514 28.2942 4.57589 28.901 5.09104 29.3912C5.6062 29.8814 6.24772 30.2355 6.95311 30.4229C9.59556 31.1089 19.9918 31.1089 19.9918 31.1089C24.3528 31.1585 28.7128 30.9405 33.0471 30.4562C33.7439 30.2762 34.3833 29.9216 34.905 29.4259C35.4188 28.9358 35.784 28.3262 35.9673 27.6624C36.4464 25.1477 36.6794 22.5922 36.6629 20.0323C36.699 17.4615 36.4663 14.894 35.9686 12.3715V12.3729ZM16.6703 24.7548V15.2473L25.3628 20.0017L16.6703 24.7548Z" fill="#B59571"/>
<path d="M36.6144 71.475C36.8978 72.2409 36.0273 74.028 34.0029 76.8363C33.7195 77.2192 33.3551 77.7298 32.9097 78.3681C31.9785 79.5594 31.4522 80.3466 31.3307 80.7295C31.1283 81.2401 31.2092 81.7295 31.5736 82.1975C31.7761 82.4528 32.2417 82.9634 32.9705 83.7293H33.0312V83.7931C34.6912 85.3674 35.8046 86.7077 36.3714 87.814L36.4929 88.0693L36.6144 88.548V89.1543L36.1893 89.633L35.1568 89.8564L30.7234 89.984C30.44 90.0266 30.1059 89.984 29.7213 89.8564C29.3367 89.7287 29.0431 89.6011 28.8407 89.4735L28.4763 89.2182C28.1119 88.9629 27.707 88.5799 27.2617 88.0693C26.8163 87.5587 26.4215 87.0907 26.0774 86.6652C25.7332 86.2397 25.379 85.8887 25.0146 85.6121C24.6502 85.3355 24.3263 85.2398 24.0429 85.3249C24.0024 85.3249 23.9518 85.3462 23.891 85.3887C23.8303 85.4313 23.7291 85.527 23.5874 85.6759C23.4457 85.8248 23.3242 86.0057 23.223 86.2184C23.1218 86.4312 23.0307 86.7397 22.9497 87.1439C22.8687 87.5481 22.8282 88.0268 22.8282 88.5799C22.8282 88.7501 22.808 88.9097 22.7675 89.0586C22.727 89.2075 22.6865 89.3245 22.646 89.4096L22.5853 89.4735C22.3424 89.7287 22.0185 89.8564 21.6136 89.8564H19.6702C18.8199 89.9415 17.9595 89.8564 17.089 89.6011C16.2186 89.3458 15.4594 89.016 14.8116 88.6118C14.1638 88.2076 13.5767 87.8034 13.0504 87.3992C12.524 86.9949 12.1191 86.6439 11.8357 86.3461L11.4106 85.8993C11.2891 85.8142 11.1272 85.644 10.9247 85.3887C10.7223 85.1334 10.3073 84.5803 9.67974 83.7293C9.05218 82.8783 8.43474 81.9635 7.82742 80.9848C7.2201 80.0062 6.51156 78.7191 5.7018 77.1235C4.89204 75.5279 4.14301 73.8791 3.45472 72.1771C3.37374 71.9644 3.33325 71.7942 3.33325 71.6665C3.33325 71.5389 3.3535 71.4325 3.39398 71.3474L3.45472 71.2836C3.61667 71.0283 3.94057 70.9006 4.42643 70.9006H9.22425C9.34572 70.9006 9.46718 70.9325 9.58865 70.9964L9.89231 71.1559L9.95304 71.2198C10.1555 71.3474 10.2972 71.5389 10.3782 71.7942C10.6211 72.3899 10.8944 73.0175 11.198 73.677C11.5017 74.3365 11.7345 74.8365 11.8965 75.1768L12.1394 75.6874C12.5038 76.4108 12.8378 77.0384 13.1415 77.5703C13.4451 78.1021 13.7184 78.517 13.9613 78.8148C14.2043 79.1127 14.4472 79.3467 14.6901 79.5169C14.9331 79.6871 15.1355 79.7722 15.2975 79.7722C15.4594 79.7722 15.6214 79.7509 15.7833 79.7084L15.844 79.6126L16.0566 79.1978L16.2995 78.3681L16.4514 76.9001V74.6024C16.4109 74.1344 16.3501 73.6983 16.2692 73.294C16.1882 72.8898 16.1072 72.6026 16.0262 72.4324L15.9655 72.2409C15.6821 71.8154 15.176 71.5389 14.4472 71.4112C14.3257 71.4112 14.3662 71.2623 14.5687 70.9645C14.7711 70.7517 14.9938 70.5815 15.2367 70.4539C15.844 70.1135 17.2206 69.9645 19.3665 70.0071C20.2977 70.0071 21.0872 70.0922 21.735 70.2624C21.9375 70.3049 22.1197 70.3794 22.2816 70.4858C22.4436 70.5921 22.565 70.7411 22.646 70.9325C22.727 71.124 22.7877 71.3155 22.8282 71.507C22.8687 71.6984 22.889 71.975 22.889 72.3367V73.3259C22.8485 73.6663 22.8282 74.0918 22.8282 74.6024V76.1342C22.8282 76.2619 22.8181 76.5172 22.7979 76.9001C22.7776 77.283 22.7675 77.5809 22.7675 77.7936C22.7675 78.0064 22.7877 78.251 22.8282 78.5276C22.8687 78.8042 22.9396 79.0382 23.0408 79.2297C23.142 79.4212 23.2736 79.5594 23.4355 79.6445C23.5165 79.6871 23.6076 79.719 23.7088 79.7403C23.8101 79.7615 23.9619 79.6977 24.1643 79.5488C24.3668 79.3999 24.5894 79.1871 24.8324 78.9106C25.0753 78.634 25.379 78.2191 25.7434 77.666C26.1077 77.1128 26.4924 76.4746 26.8973 75.7513C27.5856 74.4748 28.2131 73.0919 28.78 71.6027C28.8204 71.5176 28.871 71.4219 28.9318 71.3155C28.9925 71.2091 29.0634 71.1347 29.1443 71.0921H29.2051L29.2658 71.0283L29.5087 70.9645H29.8731L34.8531 70.9006C35.2985 70.8581 35.673 70.8794 35.9767 70.9645C36.2803 71.0496 36.4524 71.1559 36.4929 71.2836L36.6144 71.475Z" fill="#B59571"/>
<path d="M29.6112 131.228L9.92656 138.469C8.58316 138.983 8.59093 139.698 9.68008 140.017L14.7339 141.521L26.427 134.484C26.9799 134.163 27.4851 134.335 27.0698 134.687L17.5961 142.843H17.5939L17.5961 142.844L17.2475 147.813C17.7582 147.813 17.9836 147.589 18.27 147.326L20.7248 145.049L25.8308 148.646C26.7723 149.141 27.4484 148.887 27.6827 147.815L31.0345 132.747C31.3776 131.434 30.5094 130.84 29.6112 131.228Z" fill="#B59571"/>
</svg>
