<svg width="300" height="500" xmlns="http://www.w3.org/2000/svg">
 <g id="Layer_1">
  <title>Layer 1</title>
  <rect fill-opacity="0.84" id="svg_1" height="153" width="249" y="198.8" x="25.99999" stroke="#000" fill="url(#svg_8)"/>
  <path fill-opacity="0.84" id="svg_2" d="m25.87499,198.21288l124.50001,-134l124.50001,134l-249.00001,0z" stroke="#000" fill="url(#svg_7)"/>
  <path id="svg_3" d="m185.55529,270.1703c-4.57793,-6.19779 -10.17871,-11.21554 -15.79669,-14.72565c-6.5553,3.59789 -14.53929,5.78873 -23.2434,5.78873c-8.7212,0 -16.71668,-2.19512 -23.26042,-5.78873c-5.61796,3.51011 -11.22446,8.52787 -15.81363,14.72565c-10.65307,14.38948 -11.82464,29.14942 -2.62338,32.97647c4.12071,1.72397 8.44122,0.43902 12.9048,-2.78414c-0.78297,3.26808 -1.24021,6.81025 -1.24021,10.51527c0,16.46043 8.53274,29.79407 19.04841,29.79407c6.33815,0 9.47572,-4.85508 10.98444,-12.28857c1.50315,7.43349 4.6407,12.28857 10.95587,12.28857c10.53295,0 19.06577,-13.33363 19.06577,-29.79407c0,-3.70502 -0.45739,-7.24719 -1.25738,-10.51527c4.4749,3.22316 8.78973,4.5081 12.92188,2.78414c9.1956,-3.82705 8.00672,-18.587 -2.64605,-32.97647l-0.00001,0zm-39.05134,-14.5522c17.69386,0 32.0445,-10.75511 32.0445,-24.02235s-14.35064,-24.02238 -32.0445,-24.02238c-17.69988,0 -32.06185,10.75725 -32.06185,24.02238s14.36198,24.02235 32.06185,24.02235z" stroke="#000" fill="#ffff56"/>
 </g>
 <defs>
  <linearGradient y2="0.225" x2="0.79297" y1="0.98281" x1="0" id="svg_7">
   <stop offset="0" stop-color="#f79400"/>
   <stop offset="1" stop-opacity="0.99609" stop-color="#000000"/>
  </linearGradient>
  <linearGradient y2="1" x2="0" y1="0.2875" x1="0.72656" id="svg_8">
   <stop offset="0.00391" stop-opacity="0.99609" stop-color="#f48e00"/>
   <stop offset="1" stop-opacity="0.99609" stop-color="#000000"/>
  </linearGradient>
 </defs>
</svg>