<svg xmlns="http://www.w3.org/2000/svg" xmlns:xlink="http://www.w3.org/1999/xlink" viewBox="0,0,256,256" width="48px" height="48px"><g fill="none" fill-rule="none" stroke="none" stroke-width="none" stroke-linecap="butt" stroke-linejoin="none" stroke-miterlimit="10" stroke-dasharray="" stroke-dashoffset="0" font-family="none" font-weight="none" font-size="none" text-anchor="none" style="mix-blend-mode: normal"><path transform="scale(5.33333,5.33333)" d="M16.035,7c0.62,0 1.715,0 2.243,0c0.528,0 0.526,-0.477 0.922,-0.741c0.396,-0.264 0.924,-0.259 0.924,-0.259c0.271,-0.438 0.615,-0.828 0.709,-1h6.018c-0.239,0.51 -0.132,0.394 -0.438,0.683l-0.288,0.317h1.75l0.166,0.623l1.726,-0.176c0.407,-1.355 0.232,-1.445 1.435,-1.445c0.94,0 6.124,0.394 6.124,0.394l0.396,0.66l0.792,-0.567l3.43,0.567l1.056,0.915v1.196l-1,1.083l1,4.195v4.222l-1,0.583v0.75c0,0 -0.755,0.464 -1,1.125c0.206,0.272 0.779,1.151 0.839,1.451c0.117,0.588 0.208,3.371 0.161,4.174c-0.037,0.637 -0.961,1.058 -1,1.375l2,-0.618v15.493c-1.625,-1 -4.125,-1 -4.125,-1c0.32,0.32 0.338,0.21 0.5,0.75c0,0 -0.944,0.25 -2,0.25c-3.826,0 -3.454,-0.748 -3.875,-1c0,0 -0.918,0.921 -1,1h-5.375c-1.105,0.021 -2.125,1 -2.125,1l-2.75,-1l-0.875,1c-0.314,-0.377 -1.625,-2 -1.625,-2l-1,1l-2.625,-1c0,0 -0.631,0.771 -1.625,0.867c-0.356,0.034 -0.638,0.11 -1,0.133c0,0 -1.512,0 -3.875,0c-2.674,0 -2.286,-0.541 -4.625,-1.125v-4.736c0,-1.014 -0.044,-1.896 1,-2.639v-4.125l-1,-0.625v-3.75l1,-1v-1.375l-1,-0.75v-1.125l0.988,-1.377l-0.988,-2.748v-9c0,-1.055 0.472,-1.361 1,-1.625h8.5c0,0 0.215,1 1.535,1z" id="strokeMainSVG" fill="#000000" fill-rule="nonzero" stroke="#000000" stroke-width="3" stroke-linejoin="round"></path><g transform="scale(5.33333,5.33333)" fill="#f44336" fill-rule="evenodd" stroke="none" stroke-width="1" stroke-linejoin="miter"><path d="M12.3,27l7.7,8.333l-7.15,1.667l-3.85,-3.333zM32.622,11l3.378,1.857l-1.126,6.143l-7.882,-5.143zM11.625,11c0.375,0 0.676,0.016 1.125,0.375c0.625,0.5 2.93,2.132 2.93,2.132l0.418,0.743c0.761,0.038 0.78,0.107 1.741,0.813l21.161,14.354c-0.163,0.353 -2.679,7.583 -2.679,7.583h-3.884l-23.437,-24.75c0,0 0.382,-0.143 0.75,-0.375c0.577,-0.363 1.303,-0.875 1.875,-0.875zM14.5,6h-8.5c-0.528,0.264 -1,0.57 -1,1.625v6.875v2.125l0.988,2.748l-0.988,1.377v1.125l1,0.75v1.375l-1,1v3.75l1,0.625v4.125c-1.044,0.743 -1,1.625 -1,2.639v4.736c2.339,0.584 1.951,1.125 4.625,1.125c2.363,0 3.875,0 3.875,0c0.362,-0.023 0.644,-0.099 1,-0.133c0.994,-0.096 1.625,-0.867 1.625,-0.867l2.625,1l1,-1c0,0 1.311,1.623 1.625,2l0.875,-1l2.75,1c0,0 1.02,-0.979 2.125,-1h5.375c0.082,-0.079 1,-1 1,-1c0.421,0.252 0.049,1 3.875,1c1.056,0 2,-0.25 2,-0.25c-0.162,-0.54 -0.18,-0.43 -0.5,-0.75c0,0 2.5,0 4.125,1v-15.493l-2,0.618c0.039,-0.317 0.963,-0.738 1,-1.375c0.047,-0.803 -0.044,-3.586 -0.161,-4.174c-0.06,-0.3 -0.633,-1.179 -0.839,-1.451c0.245,-0.661 1,-1.125 1,-1.125v-0.75l1,-0.583v-4.222l-1,-4.195l1,-1.083v-1.196l-1.056,-0.915l-3.43,-0.567l-0.792,0.567l-0.396,-0.66c0,0 -5.184,-0.394 -6.124,-0.394c-1.203,0 -1.028,0.09 -1.435,1.445l-1.726,0.176l-0.166,-0.623h-1.75l0.288,-0.317c0.306,-0.289 0.199,-0.173 0.438,-0.683h-6.018c-0.094,0.172 -0.438,0.562 -0.709,1c0,0 -0.528,-0.005 -0.924,0.259c-0.396,0.264 -0.394,0.741 -0.922,0.741c-0.528,0 -1.623,0 -2.243,0c-1.32,0 -1.535,-1 -1.535,-1z"></path></g></g></svg>