<svg width="210.00000000000003" height="1500" xmlns="http://www.w3.org/2000/svg">
 <g id="Layer_1">
  <title>Layer 1</title>
  <rect stroke="#000" id="svg_1" height="584.99999" width="196" y="12" x="7" fill="#191919"/>
  <ellipse stroke-width="0" fill-opacity="0.25" ry="95" rx="95" id="svg_2" cy="114" cx="104.00001" stroke="#000" fill="#00ff00"/>
  <ellipse stroke-width="0" fill-opacity="0.25" ry="95" rx="95" id="svg_3" cy="304" cx="105.00001" stroke="#000" fill="#ffff00"/>
  <ellipse stroke-width="0" fill-opacity="0.25" ry="95" rx="95" id="svg_4" cy="495" cx="105.00001" stroke="#000" fill="#ff0000"/>
  <rect id="svg_6" height="440.99999" width="20" y="597" x="95" stroke="#000" fill="#161616"/>
  <rect id="svg_7" height="1" width="1" y="686.80003" x="488.99998" fill-opacity="0.25" stroke="#000" fill="#ff0000"/>
  <rect stroke-width="2" id="svg_8" height="83" width="199" y="678.80003" x="5.5" stroke="#000" fill="#3f00fc"/>
  <path id="svg_10" d="m160.50001,688.99997c-19.05378,0 -34.50001,13.65535 -34.50001,30.49999c0,16.84458 15.44624,30.49999 34.50001,30.49999c19.05378,0 34.49999,-13.65541 34.49999,-30.49999c0,-16.84464 -15.44622,-30.49999 -34.49999,-30.49999zm-5.54262,50.90858l-8.39411,-7.42733l14.6865,-12.98288l-14.6865,-12.98288l8.39411,-7.4209l23.08237,20.40378l-23.08237,20.41021z" stroke-width="0" stroke="#000" fill="#000000"/>
  <path stroke="#000" id="svg_11" d="m49.50001,748.99994c18.5024,0 33.49999,-13.43151 33.49999,-29.99998c0,-16.5685 -14.99759,-29.99999 -33.49999,-29.99999c-18.50149,0 -33.50001,13.43149 -33.50001,29.99999c0,16.56847 14.99852,29.99998 33.50001,29.99998zm5.38198,-50.07163l8.15074,7.30315l-14.26074,12.77007l14.26074,12.77084l-8.15074,7.30074l-22.41073,-20.07158l22.41073,-20.07322l0,0z" stroke-width="0" fill="#000000"/>
  <path id="svg_12" d="m88,716.42202l16.5,-32.42199l16.5,32.42199l-8.25,0l0,32.578l-16.5,0l0,-32.578l-8.25,0z" stroke-width="0" stroke="#000" fill="#000000"/>
  <path id="svg_13" d="m617.90249,703.77305l0.74251,-0.4988l0.74251,0.4988l-0.37125,0l0,0.5012l-0.74251,0l0,-0.5012l-0.37125,0z" stroke-width="0" stroke="#000" fill="#000000"/>
 </g>
</svg>